HIERARCHY
ROOT Hips
{
  OFFSET 0 0 0
  CHANNELS 6 Xposition Yposition Zposition Zrotation Yrotation Xrotation
  JOINT LeftThigh
  {
    OFFSET 8.409438 0 -5.917753
    CHANNELS 3 Zrotation Yrotation Xrotation
    JOINT LeftLeg
    {
      OFFSET 0 0 -42.358652
      CHANNELS 3 Zrotation Yrotation Xrotation
      JOINT LeftFoot
      {
        OFFSET 0 0 -39.357303
        CHANNELS 3 Zrotation Yrotation Xrotation
      }
    }
  }
  JOINT RightThigh
  {
    OFFSET -8.409438 0 -5.917753
    CHANNELS 3 Zrotation Yrotation Xrotation
    JOINT RightLeg
    {
      OFFSET 0 0 -42.358652
      CHANNELS 3 Zrotation Yrotation Xrotation
      JOINT RightFoot
      {
        OFFSET 0 0 -39.357303
        CHANNELS 3 Zrotation Yrotation Xrotation
      }
    }
  }
  JOINT SpineLow
  {
    OFFSET 0 0 4.719101
    CHANNELS 3 Zrotation Yrotation Xrotation
    JOINT SpineMid
    {
      OFFSET 0 0 12.899191
      CHANNELS 3 Zrotation Yrotation Xrotation
      JOINT Chest
      {
        OFFSET 0 0 12.899191
        CHANNELS 3 Zrotation Yrotation Xrotation
        JOINT LeftShoulder
        {
          OFFSET 7.550562 1.41573 9.438202
          CHANNELS 3 Zrotation Yrotation Xrotation
          JOINT LeftArm
          {
            OFFSET 9.155056 0 4.247191
            CHANNELS 3 Zrotation Yrotation Xrotation
            JOINT LeftForearm
            {
              OFFSET 0 0 25.771955
              CHANNELS 3 Zrotation Yrotation Xrotation
              JOINT LeftHand
              {
                OFFSET 0 0 25.197169
                CHANNELS 3 Zrotation Yrotation Xrotation
              }
            }
          }
        }
        JOINT RightShoulder
        {
          OFFSET -7.550562 1.41573 9.438202
          CHANNELS 3 Zrotation Yrotation Xrotation
          JOINT RightArm
          {
            OFFSET -9.155056 0 4.247191
            CHANNELS 3 Zrotation Yrotation Xrotation
            JOINT RightForearm
            {
              OFFSET 0 0 -25.771955
              CHANNELS 3 Zrotation Yrotation Xrotation
              JOINT RightHand
              {
                OFFSET 0 0 -25.197169
                CHANNELS 3 Zrotation Yrotation Xrotation
              }
            }
          }
        }
        JOINT Neck
        {
          OFFSET 0 0 15.101124
          CHANNELS 3 Zrotation Yrotation Xrotation
          JOINT Head
          {
            OFFSET 0 0 11.325843
            CHANNELS 3 Zrotation Yrotation Xrotation
            End Site
            {
              OFFSET 0 0 14.157303
            }
          }
        }
      }
    }
  }
}
MOTION
Frames: 13
Frame Time: 0.0
0.0  89.887642  0.0  0.800746  -2.017032  -90.987143  2.557033  -13.034566  -14.948478  -0.45288  7.115062  41.435996  4.163853  1.379987  2.049019  -28.774999  12.496781  -27.877007  6.028018  -2.175663  40.187523  6.056983  0.488774  0.497511  0.00609  -1.52129  -0.058174  0.020335  -4.158276  -0.159592  0.020335  -4.158276  -0.159592  -18.586314  30.265492  5.650281  121.880592  37.723008  172.808558  -1.097462  -22.471366  46.91219  76.781707  -5.476681  21.642201  -12.2089  14.258769  20.299676  46.344692  21.706258  11.82717  -4.390486  5.288299  -53.677531  82.169676  4.721108  0.001261  3.752621  9.102223  7.359566  2.698536  6.873199  5.451941  
0.0  89.887642  0.0  0.84455  1.596412  -90.70368  1.593266  -12.711162  -15.758211  -2.3322  7.224467  40.692406  4.084297  1.391002  2.271832  -28.905966  13.054438  -26.264313  4.821277  -1.360546  39.018182  6.148246  0.59102  0.298145  -0.551272  -1.614187  -0.184173  -1.496583  -4.416131  -0.46719  -1.496583  -4.416131  -0.467189  -19.51072  30.984195  4.929456  122.56655  37.405105  172.702545  -0.650386  -23.127738  46.407067  77.270698  -4.827944  22.051954  -12.382033  14.880268  20.596517  45.446392  21.356874  11.91732  -5.562275  4.407933  -56.749787  81.5786  4.682  0.745681  3.808873  9.520382  7.642682  2.730503  7.189411  5.659188  
0.0  89.887642  0.0  0.788681  5.797431  -90.614237  0.71485  -12.507279  -16.192666  -4.57613  7.283755  39.416316  3.948956  1.365793  2.438774  -29.452945  13.296163  -23.986775  4.114437  -0.341995  37.351559  6.230543  0.612488  0.160666  -1.158797  -1.738641  -0.287239  -3.151759  -4.764855  -0.702638  -3.151759  -4.764855  -0.702638  -20.498574  31.570097  3.965191  123.351671  36.649297  173.001332  -0.237328  -23.94218  45.82775  78.109745  -4.078484  22.302431  -12.706209  15.775121  20.872476  44.494715  20.901181  11.855921  -6.709966  3.918036  -60.153157  81.083248  4.749944  1.416583  3.702706  9.96665  7.981606  2.639163  7.525003  5.910344  
0.0  89.887642  0.0  0.436299  10.550923  -90.71919  -0.340127  -12.598495  -16.386457  -6.905758  7.185902  37.762749  3.749091  1.33446  2.557935  -29.934584  13.076526  -20.939809  3.509921  0.782868  35.171333  5.995657  0.706821  0.116905  -1.787506  -1.899408  -0.308124  -4.870944  -5.211297  -0.702458  -4.870944  -5.211297  -0.702458  -21.688471  31.623693  2.701327  124.254819  35.669184  173.849337  -0.236058  -24.706614  45.451421  79.289835  -3.253244  22.206743  -13.426969  16.761  20.635501  43.294838  20.224369  11.604165  -7.472088  3.714873  -63.991332  80.819696  5.063398  1.990792  3.283769  10.337649  8.104988  2.318138  7.798491  6.006259  
0.0  89.887642  0.0  -0.098501  15.770857  -90.734375  -1.572615  -12.862884  -16.620404  -9.07092  6.882324  35.802733  3.495106  1.266683  2.605923  -30.29534  12.371585  -17.48893  2.832495  2.006029  32.550459  5.295962  1.025444  0.086973  -2.354651  -2.092456  -0.396851  -6.416537  -5.751818  -0.881593  -6.416537  -5.751818  -0.881593  -23.159126  31.560243  1.03988  124.899557  33.896054  174.531177  -1.232084  -25.246925  45.792  80.652213  -2.187498  21.820665  -14.767332  18.078049  20.39208  41.770558  19.324942  11.228396  -7.654099  3.599445  -68.328827  80.528782  5.711114  2.416253  2.368514  10.640139  8.3464  1.624775  8.014211  6.200124  
0.0  89.887642  0.0  -0.736916  21.074092  -90.650137  -2.665369  -13.302185  -16.94976  -10.825695  6.407629  33.687541  3.225774  1.205326  2.507492  -30.000936  11.400374  -13.875224  1.707279  3.350178  29.614261  4.148837  1.445295  0.0184  -2.713859  -2.268473  -0.514608  -7.389603  -6.249209  -1.152779  -7.389603  -6.249209  -1.152779  -25.275171  31.164284  -0.856481  124.908789  31.671513  174.913285  -3.587914  -25.509947  47.164203  81.83275  -0.786203  21.163457  -17.0559  19.765239  20.225284  39.579416  18.097316  10.175017  -7.028914  3.707771  -73.133026  80.122168  6.505357  2.769618  0.615902  10.67924  8.514702  0.3103  8.01981  6.356523  
0.0  89.887642  0.0  -1.457878  26.568966  -90.931016  -3.878082  -13.833357  -16.85063  -11.956056  5.696039  31.454862  2.9363  1.12493  2.276219  -28.783143  10.54278  -9.784625  -0.480951  4.700722  26.426489  2.821113  1.792598  -0.075512  -2.972156  -2.401877  -0.551837  -8.093635  -6.621463  -1.213803  -8.093636  -6.621464  -1.213803  -26.875216  30.419827  -1.956206  123.840991  30.105128  175.307835  -7.18018  -25.160625  49.739145  82.814593  0.914694  20.37723  -19.354062  21.229096  19.666606  36.823118  16.902626  9.067583  -6.057531  4.775068  -78.540626  78.918323  7.151688  2.629223  -1.489768  10.389204  8.60408  -1.262255  7.772871  6.460851  
0.0  89.887642  0.0  -2.103702  32.417154  -91.794264  -5.346144  -14.242319  -16.062433  -12.582253  4.922736  29.221103  1.682451  0.789647  1.972481  -26.743565  9.825885  -5.063723  -4.202914  5.987624  22.995136  1.604272  1.983826  -0.301769  -3.19556  -2.469492  -0.449507  -8.716726  -6.795804  -0.902262  -8.716726  -6.795804  -0.902262  -28.099125  29.329021  -2.832526  122.395115  29.05304  175.762847  -11.3781  -24.039939  53.432008  83.70596  2.710556  19.553191  -21.288926  21.85639  18.584162  33.995778  16.833451  8.228722  -4.789878  6.277241  -83.772897  77.718565  8.31574  3.068201  -4.23629  9.798116  8.283934  -3.304114  7.293343  6.26655  
0.0  89.887642  0.0  -2.295859  39.095438  -92.222548  -7.490602  -14.196712  -15.357612  -12.777344  4.176786  27.010686  -0.135099  0.160423  1.706463  -25.163878  9.072418  -0.764795  -8.978536  6.896542  19.259071  0.435255  2.047745  -0.501094  -3.430025  -2.450926  -0.451685  -9.359375  -6.74777  -0.886467  -9.359374  -6.74777  -0.886467  -28.661778  28.386712  -3.056198  121.338844  28.35722  176.52492  -15.487833  -21.951712  58.083959  84.618839  4.615564  18.712134  -22.773498  22.4099  17.439764  32.118567  17.998415  7.412048  -4.670253  7.261172  -88.766661  77.794771  9.464104  4.958362  -7.349851  9.027057  8.088849  -5.622428  6.675791  6.16441  
0.0  89.887642  0.0  -2.446967  45.735472  -91.625258  -9.797809  -14.105194  -15.440839  -13.657161  3.4717  24.598443  -0.571958  -0.140048  1.80053  -23.952453  7.570005  2.337135  -14.475473  7.365574  15.435913  -0.784613  2.163683  -0.69189  -3.567345  -2.386717  -0.64208  -9.716473  -6.601877  -1.40245  -9.716472  -6.601877  -1.40245  -28.130927  27.392293  -2.522181  121.122503  28.049861  177.466834  -18.929868  -18.042814  63.380811  84.94543  6.290646  17.896739  -23.895419  22.821433  15.596797  32.088788  20.033114  7.162045  -5.174538  6.847331  -93.585699  79.548725  10.461199  8.639268  -10.633711  8.023633  8.097289  -8.070748  5.88043  6.205625  
0.0  89.887642  0.0  -3.115911  49.77565  -90.58283  -10.365273  -14.337763  -16.35816  -14.257886  2.765896  22.746064  -0.093036  -0.391524  1.907377  -21.433121  5.143159  4.293185  -19.850775  7.633621  11.775976  -1.411191  2.122825  -0.93067  -3.286959  -2.370853  -0.826329  -8.929334  -6.578395  -1.937062  -8.929334  -6.578395  -1.937062  -26.610723  26.262035  -1.671277  122.514169  28.348329  179.00834  -21.005373  -11.877357  68.730021  84.099462  7.400166  17.578417  -24.821136  22.334173  11.507136  33.649581  22.93355  8.369877  -6.918844  5.398013  -98.064423  81.795525  11.266757  11.627418  -13.846683  6.863143  7.980026  -10.464591  4.97079  6.137736  
0.0  89.887642  0.0  -2.40455  52.98703  -88.977333  -11.890074  -13.662293  -16.987793  -13.136409  2.014366  21.694568  0.478227  -0.698936  1.958987  -20.200437  3.95349  5.488122  -23.586178  7.784011  8.671018  -1.264554  1.979249  -0.86033  -2.942257  -2.306197  -1.031542  -7.965133  -6.417488  -2.541136  -7.965132  -6.417488  -2.541136  -24.107307  26.355799  -0.957867  124.745564  28.554905  -179.374895  -21.869505  -3.509305  73.264912  82.472247  7.695356  17.90756  -25.33777  22.818183  7.428719  35.235509  27.12479  8.791714  -10.136738  5.204966  -102.452799  81.978956  12.116509  13.13717  -16.759448  6.31241  7.892566  -12.641049  4.522957  6.092612  
0.0  89.887642  0.0  -0.341071  56.345884  -87.49996  -14.357647  -12.174951  -16.270318  -11.233119  1.390401  20.655087  0.626966  -0.996158  1.886019  -22.223867  4.678274  6.422705  -23.892557  7.775316  6.933965  -1.08271  1.881907  -0.720259  -2.675626  -2.032283  -1.199489  -7.226865  -5.678581  -3.055865  -7.226865  -5.678582  -3.055865  -20.907523  26.640354  0.864684  127.822576  28.556225  -177.729763  -21.602496  5.269574  76.86437  81.183779  7.05469  18.649203  -25.402202  23.058383  4.276201  36.205474  32.64631  9.177351  -14.450824  4.422795  -106.642746  81.547806  12.800819  13.884183  -19.391931  5.890246  8.192123  -14.613298  4.163706  6.333778  
